<svg xmlns="http://www.w3.org/2000/svg" viewBox="0 0 374.24 550.19"><defs><style>.cls-1{fill:#555;}</style></defs><g id="Layer_2" data-name="Layer 2"><g id="Objects"><path class="cls-1" d="M236.58,402.88a143.69,143.69,0,0,0,13.16-31.65c2.29-8.57,2.91-18-1.8-25.85-10.07-16.91-30.71-16.4-46-8a23.15,23.15,0,0,0-8.8-22.2c-9.9-7.37-21.91-2.93-31.68,2.6,1.06-10.8.06-22.68-11.15-27.7-9.27-4.14-18.17-1.35-25.63,4l31.2-60.15C162,222,168.4,210.16,174.31,198.1c5.09-10.38,10.51-21.54,12.52-33,1.3-7.43,0-15.63-7.53-19.17-8.34-3.94-18.47.46-25.33,5.38-19.32,13.87-30,35.95-39.84,56.91-11.33,24.1-22.66,48.22-33.55,72.53-13-6.5-29.74-4.86-42.87.29C22,287.18,8.56,299.63,3.08,315.79c-6.16,18.12,2.24,35.73,11.7,51,5.49,8.84,11.56,17.62,15.05,27.51,3.75,10.59,3.58,21.7,1.33,32.59C25.72,453.16,13.38,477.51.35,500.73a2.48,2.48,0,0,0,4.24,2.58c11.69-18.09,20.53-38.55,27.12-59,5.58-17.29,9-35.49,2.35-53S13.7,360.06,8,342.22c-6.31-19.74,3.16-39.33,19.8-50.61,15.92-10.77,33.63-11.65,51.73-8.53q-2.46,5.52-4.9,11.06a1.6,1.6,0,0,0,0,1.39,158.18,158.18,0,0,0-8.41,16.2c-.67,1.42-1.28,2.91-2,4.38-4.06-1.94-9.82-1.47-12.25,2.78-2.11,3.7.14,7.88,4.1,8.82,5.87,1.38,9.37-3.83,11.54-8.42,3.68-7.79,7.34-15.78,9.76-24.08,1.92-3.82,3.81-7.66,5.7-11.5a.73.73,0,0,0,.57-1.15c8.51-17.31,16.79-34.71,25-52.14,9.32-19.7,17.6-40.71,30.79-58.23a88,88,0,0,1,12.27-13.5c-3.77,6.81-4.45,15.34,2.8,20,11.37,7.25,21.43-3.44,27.26-12.84-.21.88-.44,1.75-.67,2.58-6.28,22.59-19.21,43.42-29.94,64.1q-18.79,36.17-37.57,72.32a2.4,2.4,0,0,0,4.1,2.49c6.88-8.72,17.79-17.79,29.66-13.24,11.35,4.34,10.11,17.87,8.64,27.62-.28,1.86,1.52,4,3.49,2.8,8-5,19-11.63,28.56-6.72,8.59,4.39,11.77,16.16,6.92,24.31-1.49,2.49,1.67,4.71,3.78,3.06,8-6.27,18.54-10.52,28.83-8.25S246.14,347.3,246.55,358c.4,10.34-4.27,21.11-8.39,30.37a160.51,160.51,0,0,1-15.87,27.79c-12.74,17.93-29.07,32.24-47.44,44.18-17.21,11.19-35.41,20.9-51.64,33.56-18.87,14.73-33.62,33.72-48.16,52.55-2,2.6,2.38,5.23,4.36,2.65,15.5-20.1,31.31-39.95,52-55,19-13.89,40.24-24.41,59.15-38.46A164.22,164.22,0,0,0,236.58,402.88ZM62.23,320.05c-.93,1.45-2.37,3.17-4.27,3.29,1-2.64,2.51-3.79,4.39-3.48Zm118.62-160.2c-4.14,7.47-10.28,18.81-20.64,16.86-11.52-2.17-7.29-15.71-2.07-22.71a36.76,36.76,0,0,1,6.33-3.18c5.45-2.06,13.21-3.08,16.73,2.86a11.31,11.31,0,0,1,1.47,5.27A1.64,1.64,0,0,0,180.85,159.85Z"/><path class="cls-1" d="M373.53,148.81c-3.16-36.24-17.48-73.38-46.8-96.33a1.85,1.85,0,0,0-.77-.38,128,128,0,0,0-38.68-34.4c-29.14-16.74-64.19-21-97-15.27-26.84-3.14-54.37,6.17-75.1,23.22-23.42,19.26-35.43,49.06-43,77.67-8.14,30.72-10,63.75-.33,94.36A137.58,137.58,0,0,0,84.61,226.4a90.06,90.06,0,0,0,13.45,24.15,5.7,5.7,0,0,1,.33-1.19,5.58,5.58,0,0,1,.45-1.3l.54-1.19c-.67-.86-1.34-1.71-2-2.58.69.79,1.4,1.57,2.1,2.34.73-1.6,1.44-3.2,2.26-4.76a119,119,0,0,1-18.24-27.25c-13.32-27.17-15.88-58.12-11.35-87.76a226.94,226.94,0,0,1,13-47.74C91.26,63.47,99,48.28,110.89,36.2c20.43-20.82,49.1-30.92,78-29.6a2.22,2.22,0,0,0,1.55.26c54.82-10,114,12.23,141.29,62.43,13.9,25.57,15.07,54.79,14.79,83.31-.15,14.63-1.49,29.49-6.66,43.29a107.46,107.46,0,0,1-12.6,23.2.64.64,0,0,0-.43.62c-3.41,4.87-7.06,9.56-10.73,14.11-9.27,11.49-19.75,21.89-33,28.74s-27.79,10.66-42,14.64c-15.64,4.38-31.14,7.05-47.39,5.08a246.48,246.48,0,0,1-45.05-10.12,110.34,110.34,0,0,1-12.8-5q-1.14,2.07-2.21,4.19c1,.44,2.05.88,3.09,1.3,3.37,3.11,6.73,6.23,10.33,9.07.57.46,1.36-.27.82-.82-2.34-2.36-4.82-4.57-7.33-6.75q3.41,1.26,6.89,2.36A62.18,62.18,0,0,0,158.81,287c.5.36,1.12-.45.66-.85-3.21-2.82-6.25-5.76-9.23-8.79q3,.88,5.92,1.68a149.11,149.11,0,0,0,15.62,16c.59.51,1.42-.3.87-.87-4.74-4.92-9.6-9.75-14.46-14.56,3.15.82,6.3,1.58,9.46,2.31,4.66,5.45,9.28,11,14.3,16.08.51.52,1.2-.24.78-.78-4-5.1-8.29-9.92-12.6-14.73,2.69.6,5.4,1.18,8.11,1.73a.66.66,0,0,0,.11.61c4.24,5.42,8.3,11.14,13,16.17.52.56,1.52-.18,1.07-.83-3.8-5.48-8.34-10.52-12.62-15.64,2.48.48,5,.93,7.46,1.32a151.61,151.61,0,0,0,12.21,13.6c.47.43,1.36-.16.94-.72A139.9,139.9,0,0,0,189,286.1q3.54.52,7.1.87a.5.5,0,0,0,.11.41c4.58,5.59,9,11.36,14,16.53.4.41,1.18-.15.82-.63-4.24-5.7-9.12-10.91-13.83-16.22,3.07.27,6.15.42,9.25.43,3.79,5.11,7.57,10.22,11.77,15,.56.63,1.68-.21,1.19-.92-3.45-4.89-7.27-9.5-11.11-14.09a83.38,83.38,0,0,0,9.17-.61c3.51,6.27,7.75,12.35,13.25,17a.71.71,0,0,0,1-1A161.17,161.17,0,0,1,219,286.68q4.32-.58,8.63-1.43c4,5.83,8,11.87,12.79,17a.74.74,0,0,0,1.15-.89c-3.67-5.79-8.34-11.13-12.84-16.37,2.06-.42,4.11-.88,6.17-1.37,3.16,5.71,6.92,11.55,12,15.79a.72.72,0,0,0,1-1c-4-5-8.22-9.66-11.63-15.1,1.57-.38,3.12-.79,4.68-1.2,2.07,2.5,4.12,5,6.4,7.34.72.72,1.68-.33,1.09-1.09-1.85-2.33-3.92-4.5-6-6.66,2.75-.75,5.48-1.56,8.2-2.39,1,2.89,3.7,5.55,5.76,7.67a38.57,38.57,0,0,0,8.81,6.75c.82.46,1.45-.7.72-1.24a76.58,76.58,0,0,1-8.19-6.85c-2.1-2.05-3.77-4.73-5.95-6.68,2.2-.68,4.4-1.38,6.58-2.08a.52.52,0,0,0,.06.53A91.84,91.84,0,0,0,271.06,292c.73.71,1.87-.45,1.11-1.11a78.56,78.56,0,0,1-12.62-14.14.54.54,0,0,0-.21-.19c2.34-.76,4.65-1.53,7-2.3l.32-.12c4.75,6.45,9.6,13.18,15.17,18.84.69.71,2-.22,1.41-1.08-4.41-6.44-9.95-12.41-15.28-18.21,1.82-.63,3.61-1.3,5.39-2a139.5,139.5,0,0,0,10.94,9.55c.53.4,1.13-.44.69-.9a130.25,130.25,0,0,0-10.3-9.18q3.62-1.47,7.09-3.15c4,5.44,9.06,10.72,14.93,14,.71.4,1.57-.61.9-1.17-5.18-4.32-10.09-8.4-14.48-13.46q3-1.48,5.87-3.15c3.56,4.07,7.05,8.48,11.09,12,.52.45,1.5-.16,1-.79-3.24-4.22-7.37-7.94-11.22-11.71,2-1.17,3.89-2.43,5.78-3.74,4.08,6.37,8.87,13.38,14.88,17.7.54.38,1.32-.39.93-.93-2.25-3.09-5.15-5.69-7.68-8.56s-4.91-5.82-7.19-8.87c1.62-1.16,3.22-2.38,4.78-3.66a46,46,0,0,0,11.85,14,.79.79,0,0,0,1.12-1.12c-2.23-2.43-4.63-4.71-6.8-7.2-1.81-2.09-3.38-4.39-5.15-6.51.85-.72,1.69-1.45,2.52-2.21s1.7-1.63,2.54-2.46a192.33,192.33,0,0,0,13.08,15.12c.81.81,1.89-.37,1.22-1.23a194.7,194.7,0,0,0-13.43-14.73c1.71-1.71,3.36-3.49,5-5.3h0c5,5.34,9.73,11.32,15.15,16.23a.87.87,0,0,0,1.22-1.23c-4.66-5.62-10.4-10.62-15.51-15.86l-.06-.05q2-2.31,4-4.7c4.89,4,9.72,8.16,14.95,11.69.63.42,1.39-.55.82-1.06-4.71-4.18-9.92-7.83-15-11.57,1.81-2.25,3.55-4.55,5.27-6.87,4.91,4.69,10,9.71,15.53,13.63.79.56,1.63-.64,1-1.3-4.68-4.89-10.4-9.2-15.75-13.38,1.58-2.17,3.11-4.36,4.63-6.55,3.74,4.39,7.49,9,11.88,12.61.68.54,1.94-.19,1.33-1-3.43-4.71-8-8.8-12.33-12.87.64-.94,1.29-1.88,1.92-2.82q1.26-1.9,2.43-3.83c3.72,4.18,8.08,8.42,12.75,11.15a.87.87,0,0,0,1-1.36c-2.37-2.26-5.12-4.11-7.61-6.24-1.84-1.58-3.6-3.24-5.36-4.91,1.13-1.9,2.18-3.82,3.18-5.76a20.07,20.07,0,0,0,6.62,6.51c.8.44,1.72-.65,1-1.3a55.45,55.45,0,0,1-6.81-6.81q1.77-3.59,3.26-7.27c2.33,2.6,4.69,5.18,7.09,7.71s4.88,5.66,7.88,7.63c.68.44,1.63-.46,1.15-1.15-2.1-2.93-5.16-5.26-7.73-7.78s-5.24-5.24-7.81-7.91q1.26-3.28,2.3-6.68c1.68,1.58,3.38,3.13,5.08,4.69,2,1.89,4,4.08,6.43,5.47.51.29,1.27-.33.86-.86-1.68-2.23-4.07-3.91-6.19-5.71-1.93-1.62-3.85-3.25-5.79-4.86q.84-2.88,1.51-5.84c4.59,3.89,9.12,7.94,14,11.43.69.5,1.52-.6.91-1.17-4.58-4.25-9.66-8-14.56-11.88q.69-3.27,1.17-6.65c.07-.52.13-1.05.2-1.57,4.33,4,8.57,8.14,13.29,11.61.81.6,1.73-.68,1.05-1.36-4.32-4.38-9.38-8.11-14.12-12,.32-2.85.53-5.71.69-8.57,3.49,2.84,6.94,5.71,10.57,8.36.68.5,1.54-.61.9-1.17-3.51-3.08-7.23-5.91-10.9-8.8a.79.79,0,0,0-.46-.17c.15-3.21.21-6.42.21-9.64a150.3,150.3,0,0,0,11.75,10.28c.81.61,1.76-.69,1.06-1.38-3.88-3.86-8.42-7.19-12.67-10.65a.64.64,0,0,0-.14-.08c0-3-.07-6-.14-9a39.36,39.36,0,0,0,5.46,5c2.08,1.8,4.17,3.59,6.38,5.24.79.6,1.77-.7,1.05-1.36-2.09-1.92-4.31-3.68-6.54-5.44-2-1.57-3.94-3.5-6.25-4.53a.29.29,0,0,0-.13,0c-.08-3.26-.19-6.51-.29-9.77a101.48,101.48,0,0,0,11.48,10.13c.85.63,1.78-.71,1.1-1.43a105.32,105.32,0,0,0-12.65-11V128q-.12-4-.34-7.94l0,0c3.59,3.4,7.07,7.43,11.16,10.22.69.48,1.32-.52.84-1.09-3.15-3.75-7.46-6.77-11.17-10a.6.6,0,0,0-.89.11c-.18-2.85-.4-5.69-.7-8.52a90.87,90.87,0,0,0,10.57,8.36.62.62,0,0,0,.75-1c-3.44-3.44-7.63-6.23-11.53-9.15-.34-2.94-.77-5.85-1.3-8.76,1.56,1.1,3.08,2.24,4.54,3.48s2.86,2.77,4.46,3.93c.68.49,1.25-.51.82-1.06-2.52-3.23-6.65-5.76-10.12-7.91-.56-2.84-1.24-5.66-2-8.46,2.47,2,5,4,7.67,5.8.72.5,1.64-.67,1-1.24-2.85-2.35-5.88-4.56-8.94-6.63a.57.57,0,0,0-.31-.1c-.3-1-.62-2-1-3-.67-1.92-1.38-3.83-2.14-5.71a18.52,18.52,0,0,0,7,5.75.9.9,0,0,0,1.18-.42c9.37,15.54,15.34,33.15,18.32,51.33,5.7,34.73,1.67,72.8-15.38,103.93a118.16,118.16,0,0,1-31.19,37c-14.54,11.2-31.64,17-49,22.32-18.69,5.76-36.93,9.14-56.55,7.22-18.7-1.83-37-7.34-54.27-14.64a187,187,0,0,1-30-15.93c-.28.6-.56,1.2-.83,1.81a4.74,4.74,0,0,1-.92,1.39,184.87,184.87,0,0,0,18.18,10.48c32.87,16.61,71.57,26.92,108.19,18.38,19-4.42,39.28-10.51,56.17-20.38a115.89,115.89,0,0,0,35.37-32.72C369.34,224.64,376.73,185.43,373.53,148.81ZM342,77.61a.84.84,0,0,0-1.34,0,121.14,121.14,0,0,0-6.54-13.16,115.41,115.41,0,0,1,14.57,18.9A22.65,22.65,0,0,1,342,77.61Z"/><path class="cls-1" d="M122.21,111.39c-.74,3.83,1.22,16.83-5.94,14.87-6.32-1.74-5.75-12.4-5.8-17.35-.08-6.57-.09-14.25,2.18-20.49,1-2.81,4-6.47,7-3.55,2.36,2.3,1.59,6.49,1.49,9.42-.12,3.6,5.58,4.46,6.35.86,1.05-4.87,1-10.34-2.25-14.41a9.88,9.88,0,0,0-11.67-3.15c-10.26,4.21-10,19.9-10.13,29.08s0,23.14,10.93,26.33a10.6,10.6,0,0,0,11.77-4.21c3.4-4.88,1.72-10.13,2.76-15.54C129.79,108.85,123.06,107,122.21,111.39Z"/><path class="cls-1" d="M283.31,111.39c-.73,3.83,1.23,16.83-5.94,14.87-6.32-1.74-5.74-12.4-5.8-17.35-.07-6.57-.09-14.25,2.18-20.49,1-2.81,4-6.47,7-3.55,2.37,2.3,1.59,6.49,1.5,9.42-.12,3.6,5.57,4.46,6.35.86,1.05-4.87,1-10.34-2.25-14.41a9.89,9.89,0,0,0-11.68-3.15c-10.25,4.21-10,19.9-10.12,29.08s0,23.14,10.93,26.33a10.61,10.61,0,0,0,11.77-4.21c3.4-4.88,1.72-10.13,2.76-15.54C290.9,108.85,284.17,107,283.31,111.39Z"/><path class="cls-1" d="M167,88.1c-.4-5.41-2.41-12.14-8.7-13a3.68,3.68,0,0,0-2.15.31,1.91,1.91,0,0,0-.32-.16c-5.2-2-10.81,1.56-13.37,6-3.13,5.51-2.64,12.78-2.79,18.89-.17,7.47-.21,15.19,1.34,22.54,1.09,5.16,3.9,10.48,9.19,12.31s10.51-.71,13.55-5c3.89-5.49,3.52-12.8,3.6-19.21C167.48,103.27,167.6,95.62,167,88.1Zm-7.24,33.79c-.81,3.61-4.09,8.81-8.35,6-3.49-2.33-3.94-7.64-4.34-11.43a115.55,115.55,0,0,1-.49-14c.1-6.4-1.61-21.73,8.39-20.84a3.08,3.08,0,0,0,1.44-.19l.15.06c4.43,1.53,3.59,8.15,3.7,11.89q.22,7.22.18,14.45C160.45,112.37,160.82,117.37,159.8,121.89Z"/><path class="cls-1" d="M201.47,103.32q-.1-6.57-.43-13.12c-.21-4,.23-8.63-1.73-12.23-1.25-2.31-4.45-1.52-5.23.68-1.33,3.74-.18,8.41,0,12.32q.33,6.56.42,13.12c0,3.1,0,6.2,0,9.29-1-2.95-2.06-5.93-3-8.92-2.52-8-4.25-16.24-6.79-24.23a2.53,2.53,0,0,0-1.8-1.68,2.68,2.68,0,0,0-3.63,1c-2,3.28-1.1,7.68-1.06,11.4l.15,13.9c.1,8.67-.47,17.73.79,26.32.55,3.76,5.7,2.29,6.08-.83.89-7.12.44-14.61.21-21.89,2.51,7.85,5.54,15.53,8.63,22.86,1.48,3.49,6.59,3.23,6.83-.93Q201.68,116.85,201.47,103.32Z"/><path class="cls-1" d="M226.53,76.11a89.71,89.71,0,0,0-20,1.45c-4.34.78-2.49,7.34,1.82,6.6q3-.51,6-.78c.05,7.87.28,15.76.42,23.63.15,8.14-.82,17.29,1.19,25.2.67,2.62,4.85,2.75,5.45,0,1.73-8,.47-17.07.33-25.2s-.17-16-.42-24c1.75,0,3.49,0,5.24.08C231,83.29,231,76.31,226.53,76.11Z"/><path class="cls-1" d="M312.25,76.11a89.67,89.67,0,0,0-20,1.45c-4.35.78-2.49,7.34,1.82,6.6q3-.51,6-.78c0,7.87.28,15.76.42,23.63.15,8.14-.83,17.29,1.19,25.2.67,2.62,4.84,2.75,5.44,0,1.74-8,.48-17.07.34-25.2s-.18-16-.42-24c1.74,0,3.49,0,5.24.08C316.74,83.29,316.73,76.31,312.25,76.11Z"/><path class="cls-1" d="M258.64,117.2l-3.5-15.47L251.81,87c-.9-4-1.71-8-4.9-10.78a3.54,3.54,0,0,0-6,2.47c-1.84,17.66-4.48,35.48-5.2,53.23-.14,3.48,5.59,4.38,6.19.84q.62-3.67,1.12-7.36c2.24.38,4.51.59,6.76.81,1.14.1,2.37.32,3.54.33a19.71,19.71,0,0,0,2.33,6.36c1.69,2.68,5.23,1.34,5.56-1.51C261.79,126.87,259.64,121.62,258.64,117.2Zm-14.83,2.57c1-8.32,1.82-16.7,2.59-25.06l2.67,11.83q1.49,6.57,3,13.16c-.58,0-1.16.07-1.72.08C248.16,119.82,246,119.75,243.81,119.77Z"/><path class="cls-1" d="M212.52,154.45c-.05-4.5-7-4.51-7,0q.17,14.75,0,29.5c-.05,4.51.06,9.08-.26,13.59s-1.93,7.8-6.88,8c-9.84.31-8-13.54-8.23-20.11-.3-10.15-.06-20.3-.22-30.45-.06-4.32-6.38-4.25-6.65,0-.83,12.87-.41,25.94.19,38.82.44,9.47,3.67,19.05,14.91,18.72,4.35-.13,8.59-1.66,11.14-5.33,2.7-3.89,2.75-8.82,2.84-13.37C212.66,180.67,212.67,167.56,212.52,154.45Z"/><path class="cls-1" d="M238.51,195.36c-2.29-3.71-6-5.91-9.1-8.88a17.59,17.59,0,0,1-5.28-11.08,23.25,23.25,0,0,1,2.12-12.16,13.56,13.56,0,0,1,3.12-4.65c2-1.63,3.38-.89,5.4.21a2.61,2.61,0,0,0,3.89-2.23c-.23-7.59-10.13-6.68-14.19-2.88-5.08,4.77-7.43,12.73-7.42,19.52a25.06,25.06,0,0,0,7.9,18.63c2.94,2.69,7.79,5.25,8.55,9.51,1.05,5.8-9.89,6-8.44-.14.84-3.54-4.58-6.27-6.18-2.61-3.51,8.05,4,15.31,12.13,14C239.58,211.17,243,202.63,238.51,195.36Z"/></g></g></svg>