<svg xmlns="http://www.w3.org/2000/svg" viewBox="0 0 100 100"><defs><style>.cls-1{fill:#ccc;}</style></defs><g id="Layer_2" data-name="Layer 2"><g id="Layer_1-2" data-name="Layer 1"><path class="cls-1" d="M50,0a50,50,0,0,0,0,100,48.76,48.76,0,0,0,9.8-1c1.21-.23,2.4-.51,3.57-.83A50,50,0,0,0,50,0ZM63.37,93.37V75.71a59,59,0,0,0,10.34-3A48.92,48.92,0,0,0,80,69.68V65.74A36.47,36.47,0,0,1,72.6,69.8a44.58,44.58,0,0,1-9.23,2.58V50.62a17.15,17.15,0,0,0,4.92.73,13.2,13.2,0,0,0,9-3.21,9,9,0,0,0,2.89-8.45c-.34-2.43-1.74-4.69-4.18-6.8-3.2-2.75-5-4.37-5.23-4.86a2.52,2.52,0,0,1-.44-1.34,2.64,2.64,0,0,1,2.1-2.55l-2.83-1.32A13.11,13.11,0,0,0,63.12,27q-3.32,3.9-3.32,10.74v34.8a29.1,29.1,0,0,1-10,0Q34.35,69.43,34.34,56.28a16.42,16.42,0,0,1,3.94-11A12.87,12.87,0,0,1,48.6,40.65h9.72q.12-8.31-4.55-13.31A15.29,15.29,0,0,0,42,22.82c-6.08.15-10.14,1.7-12.19,4.61a5.42,5.42,0,0,0-.86,2.94A4.9,4.9,0,0,0,30.4,34a4.35,4.35,0,0,0,3.94,1.09A7.66,7.66,0,0,0,39,32.65Q42,29.46,42.34,29.2a6.23,6.23,0,0,1,6.26-.74c3.78,1.48,5.74,4.65,5.91,9.48H41c-6,0-10.7,1.23-14.15,3.69q-7.62,5.43-7.14,15.75Q20.42,75,47.49,76.45A79.44,79.44,0,0,0,59.8,76V94.31A44.53,44.53,0,0,1,50,95.38a45.36,45.36,0,1,1,13.37-2Zm4.8-63.43,2.58,3.57a14,14,0,0,1,1.85,8.37,6,6,0,0,1-1.91,4.24,6.34,6.34,0,0,1-4.49,1.66,8.83,8.83,0,0,1-2.83-.49V37q0-7.86,4.18-10A5.3,5.3,0,0,0,68.17,29.94Z"/></g></g></svg>